<?xml version="1.0" standalone="no"?><!DOCTYPE svg PUBLIC "-//W3C//DTD SVG 1.1//EN" "http://www.w3.org/Graphics/SVG/1.1/DTD/svg11.dtd"><svg class="icon" width="200px" height="200.00px" viewBox="0 0 1024 1024" version="1.1" xmlns="http://www.w3.org/2000/svg"><path fill="#7C7979" d="M668.294737 786.863158H199.410526c-26.947368 0-48.505263-21.557895-48.505263-48.505263V342.231579c0-10.778947-8.084211-18.863158-18.863158-18.863158s-18.863158 8.084211-18.863158 18.863158v393.431579c0 48.505263 37.726316 86.231579 86.231579 86.231579h468.884211c10.778947 0 18.863158-8.084211 18.863158-18.863158s-8.084211-16.168421-18.863158-16.168421zM962.021053 358.4c-16.168421-10.778947-37.726316-10.778947-53.894737 0l-110.484211 64.673684v-123.957895c0-48.505263-37.726316-86.231579-86.231579-86.231578H261.389474c-10.778947 0-18.863158 8.084211-18.863158 18.863157s8.084211 18.863158 18.863158 18.863158h450.021052c26.947368 0 48.505263 21.557895 48.505263 48.505263v390.736843c0 10.778947 8.084211 18.863158 18.863158 18.863157s18.863158-8.084211 18.863158-18.863157v-13.473685l110.484211 64.673685c8.084211 5.389474 18.863158 8.084211 26.947368 8.08421 8.084211 0 18.863158-2.694737 26.947369-8.08421 16.168421-10.778947 26.947368-26.947368 26.947368-45.810527V404.210526c0-18.863158-10.778947-35.031579-26.947368-45.810526z m-10.778948 336.842105c0 8.084211-5.389474 13.473684-8.08421 13.473684-2.694737 2.694737-8.084211 5.389474-16.168421 0l-129.347369-75.452631v-167.073684l129.347369-75.452632c8.084211-5.389474 13.473684-2.694737 16.168421 0 2.694737 2.694737 8.084211 5.389474 8.08421 13.473684v291.031579zM67.368421 153.6c-8.084211-8.084211-18.863158-5.389474-26.947368 2.694737-8.084211 8.084211-5.389474 18.863158 2.694736 26.947368l786.863158 687.157895c2.694737 2.694737 8.084211 5.389474 13.473685 5.389474s10.778947-2.694737 13.473684-5.389474c8.084211-8.084211 5.389474-18.863158-2.694737-26.947368L67.368421 153.6z"  /></svg>