<?xml version="1.0" standalone="no"?><!DOCTYPE svg PUBLIC "-//W3C//DTD SVG 1.1//EN" "http://www.w3.org/Graphics/SVG/1.1/DTD/svg11.dtd"><svg class="icon" width="200px" height="200.00px" viewBox="0 0 1024 1024" version="1.1" xmlns="http://www.w3.org/2000/svg"><path fill="#7C7979" d="M918.3 102.2H97.9c-19.3 0-35 15.7-35 35s15.7 35 35 35h59.3V624c0 35.2 28.6 63.8 63.8 63.8h140.6l-98.2 177.4c-9.4 16.9-3.2 38.2 13.7 47.6 16.9 9.4 38.2 3.2 47.6-13.7l116.8-211c0-0.1 0.1-0.2 0.1-0.2h151.5c0 0.1 0.1 0.2 0.1 0.2l116.8 211c9.4 16.9 30.7 23 47.6 13.7 16.9-9.4 23-30.7 13.7-47.6l-98.2-177.4h124.3c35.2 0 63.8-28.6 63.8-63.8V172.2h57c19.3 0 35-15.7 35-35 0.1-19.3-15.6-35-34.9-35z m-127 515.6H227.2V172.2h564.1v445.6zM431.6 439.4h49.6V489c0 19.3 15.7 35 35 35s35-15.7 35-35v-49.6h49.6c19.3 0 35-15.7 35-35s-15.7-35-35-35h-49.6v-49.6c0-19.3-15.7-35-35-35s-35 15.7-35 35v49.6h-49.6c-19.3 0-35 15.7-35 35s15.7 35 35 35z" /></svg>