<?xml version="1.0" standalone="no"?><!DOCTYPE svg PUBLIC "-//W3C//DTD SVG 1.1//EN" "http://www.w3.org/Graphics/SVG/1.1/DTD/svg11.dtd"><svg class="icon" width="200px" height="200.00px" viewBox="0 0 1024 1024" version="1.1" xmlns="http://www.w3.org/2000/svg"><path fill="#7C7979" d="M350.72 299.52c-7.68 0-14.848-3.072-20.48-8.704l-102.4-102.4c-11.264-11.264-11.264-30.208 0-41.472s30.208-11.264 41.472 0l102.4 102.4c11.264 11.264 11.264 30.208 0 41.472C365.568 296.448 358.4 299.52 350.72 299.52zM668.16 299.52c-7.68 0-14.848-3.072-20.48-8.704-11.264-11.264-11.264-30.208 0-41.472l102.4-102.4c11.264-11.264 30.208-11.264 41.472 0 11.264 11.264 11.264 30.208 0 41.472l-102.4 102.4C683.008 296.448 675.328 299.52 668.16 299.52zM425.984 711.68c-10.24 0-19.968-5.12-25.6-14.848-8.192-13.824-3.072-31.744 10.752-39.936l169.472-97.792L411.648 460.8c-13.824-8.192-18.944-26.112-10.752-39.936 8.192-13.824 26.112-18.944 39.936-10.752l213.504 123.392c9.216 5.12 14.848 14.848 14.848 25.6s-5.632 19.968-14.848 25.6l-213.504 123.392C436.224 710.144 431.104 711.68 425.984 711.68zM425.984 614.4c-16.384 0-29.184-13.312-29.184-29.184L396.8 532.48c0-16.384 13.312-29.184 29.184-29.184s29.184 13.312 29.184 29.184l0 52.736C455.68 601.6 442.368 614.4 425.984 614.4zM790.528 885.248 233.472 885.248c-40.448 0-73.216-32.768-73.216-73.216L160.256 313.856c0-40.448 32.768-73.216 73.216-73.216l556.544 0c40.448 0 73.216 32.768 73.216 73.216l0 498.176C863.744 852.48 830.976 885.248 790.528 885.248zM233.472 299.52c-8.192 0-14.848 6.656-14.848 14.848l0 498.176c0 8.192 6.656 14.848 14.848 14.848l556.544 0c8.192 0 14.848-6.656 14.848-14.848L804.864 313.856c0-8.192-6.656-14.848-14.848-14.848L233.472 299.008z" /></svg>