<?xml version="1.0" standalone="no"?><!DOCTYPE svg PUBLIC "-//W3C//DTD SVG 1.1//EN" "http://www.w3.org/Graphics/SVG/1.1/DTD/svg11.dtd"><svg class="icon" width="200px" height="200.00px" viewBox="0 0 1024 1024" version="1.1" xmlns="http://www.w3.org/2000/svg"><path fill="#7C7979" d="M443.733333 928.426667l102.4-139.946667c1.706667-3.413333 0-6.826667-1.706666-8.533333l-102.4-34.133334c-3.413333-1.706667-6.826667 1.706667-6.826667 5.12v172.373334c0 6.826667 6.826667 8.533333 8.533333 5.12z m-110.933333-271.36L733.866667 337.92 460.8 672.426667c-6.826667 8.533333-3.413333 23.893333 8.533333 27.306666l305.493334 98.986667c8.533333 3.413333 18.773333-1.706667 22.186666-11.946667L971.093333 116.053333c3.413333-13.653333-10.24-25.6-23.893333-18.773333l-884.053333 443.733333c-13.653333 6.826667-11.946667 27.306667 1.706666 30.72 64.853333 20.48 194.56 61.44 267.946667 85.333334z"  /></svg>